<svg width="204" height="204" viewBox="0 0 204 204" fill="none" xmlns="http://www.w3.org/2000/svg">
<path d="M162.758 152.66C166.851 156.694 170.292 161.339 172.958 166.43C173.615 167.621 173.499 169.089 172.663 170.162C171.826 171.235 170.431 171.706 169.116 171.36C149.358 166.503 129.138 163.767 108.8 163.2V146.2H95.2001V163.2C74.8845 163.772 54.6879 166.508 34.952 171.36C33.6834 171.653 32.3587 171.196 31.5409 170.183C30.7231 169.17 30.5558 167.778 31.11 166.6C33.776 161.509 37.2171 156.864 41.31 152.83C42.072 152.091 42.4448 151.038 42.3181 149.984C42.1913 148.93 41.5795 147.996 40.6641 147.458C27.6403 139.344 15.5038 129.885 4.45405 119.238C3.60411 118.44 3.22263 117.261 3.44336 116.116C3.66409 114.971 4.45623 114.019 5.54205 113.594L14.212 110.194C15.1312 109.85 15.8567 109.125 16.202 108.206C16.5473 107.288 16.4788 106.264 16.014 105.4L7.37805 88.162C6.78433 86.9781 6.93216 85.5571 7.75687 84.5208C8.58158 83.4844 9.93304 83.0213 11.22 83.334L27.6761 87.448C28.5992 87.6792 29.577 87.5128 30.3718 86.9894C31.1667 86.466 31.7057 85.6334 31.858 84.694L33.626 74.154C33.8405 72.9491 34.686 71.9524 35.8398 71.5443C36.9936 71.1363 38.2778 71.3798 39.202 72.182C49.6709 80.9864 61.7653 87.6516 74.8001 91.8C74.8001 91.8 60.4861 69.156 58.1401 44.2C57.9471 42.895 58.5263 41.5962 59.6262 40.8679C60.726 40.1395 62.1479 40.113 63.2741 40.8L69.6661 44.982C70.7757 45.6513 72.1694 45.6316 73.2597 44.9312C74.35 44.2308 74.9474 42.9715 74.8001 41.684V21.454C74.7097 20.1902 75.3295 18.9809 76.4084 18.3165C77.4872 17.652 78.8461 17.6426 79.9341 18.292L88.4001 23.8C89.2849 24.3123 90.3534 24.3992 91.3094 24.0366C92.2655 23.6739 93.0075 22.9003 93.3301 21.93L98.9061 5.746C99.3941 4.40136 100.672 3.506 102.102 3.506C103.533 3.506 104.81 4.40136 105.298 5.746L110.874 21.93C111.207 22.8424 111.914 23.5689 112.817 23.9262C113.72 24.2835 114.733 24.2376 115.6 23.8L123.964 18.36C125.046 17.6615 126.429 17.6341 127.538 18.2892C128.647 18.9443 129.29 20.1694 129.2 21.454V41.854C129.096 43.1238 129.71 44.3453 130.792 45.0186C131.873 45.6919 133.241 45.704 134.334 45.05L140.726 40.8C141.852 40.113 143.274 40.1395 144.374 40.8679C145.474 41.5962 146.053 42.895 145.86 44.2C143.514 69.088 129.2 91.8 129.2 91.8C142.23 87.672 154.324 81.0302 164.798 72.25C165.722 71.4478 167.006 71.2043 168.16 71.6123C169.314 72.0204 170.16 73.0171 170.374 74.222L172.142 84.762C172.294 85.7014 172.833 86.534 173.628 87.0574C174.423 87.5808 175.401 87.7472 176.324 87.516L192.78 83.402C194.067 83.0893 195.419 83.5524 196.243 84.5888C197.068 85.6251 197.216 87.0461 196.622 88.23L187.986 105.4C187.557 106.255 187.508 107.251 187.851 108.144C188.194 109.037 188.897 109.744 189.788 110.092L198.458 113.492C199.544 113.917 200.336 114.869 200.557 116.014C200.777 117.159 200.396 118.338 199.546 119.136C188.509 129.72 176.396 139.121 163.404 147.186C162.45 147.717 161.81 148.674 161.682 149.758C161.554 150.842 161.954 151.921 162.758 152.66Z" fill="#a525b1"/>
<path d="M161.942 84.694C162.095 85.6334 162.634 86.466 163.429 86.9894C164.223 87.5128 165.201 87.6792 166.124 87.448L172.584 85.816C172.371 85.4713 172.222 85.0914 172.142 84.694L170.374 74.154C170.16 72.9491 169.314 71.9524 168.161 71.5443C167.007 71.1362 165.723 71.3798 164.798 72.182C163.37 73.44 161.908 74.596 160.446 75.582L161.942 84.694Z" fill="#a525b1"/>
<path d="M163.404 147.288C176.396 139.223 188.51 129.822 199.546 119.238C200.396 118.44 200.778 117.261 200.557 116.116C200.336 114.971 199.544 114.019 198.458 113.594L189.788 110.194C188.869 109.85 188.144 109.125 187.798 108.206C187.453 107.288 187.522 106.264 187.986 105.4L196.622 88.128C197.216 86.9441 197.068 85.5231 196.243 84.4868C195.419 83.4504 194.067 82.9873 192.78 83.3L186.32 85C186.864 86.0079 186.864 87.2221 186.32 88.23L177.786 105.4C177.357 106.255 177.308 107.251 177.651 108.144C177.994 109.037 178.697 109.744 179.588 110.092L188.258 113.492C189.344 113.917 190.136 114.869 190.357 116.014C190.578 117.159 190.196 118.338 189.346 119.136C178.31 129.72 166.196 139.121 153.204 147.186C152.289 147.724 151.677 148.658 151.55 149.712C151.423 150.766 151.796 151.819 152.558 152.558C156.651 156.592 160.092 161.237 162.758 166.328C163.366 167.38 163.366 168.676 162.758 169.728C165.24 170.272 167.416 170.782 169.218 171.258C170.433 171.45 171.657 170.97 172.419 170.005C173.18 169.039 173.36 167.737 172.89 166.6C170.224 161.509 166.783 156.864 162.69 152.83C161.863 152.083 161.454 150.978 161.597 149.872C161.739 148.767 162.415 147.801 163.404 147.288Z" fill="#8303a9"/>
<path d="M108.8 146.2V193.8C108.8 197.556 105.756 200.6 102 200.6C98.2447 200.6 95.2002 197.556 95.2002 193.8V146.2H108.8Z" fill="#a525b1"/>
<path d="M38.8617 150.212C34.5719 154.51 30.9504 159.427 28.1177 164.798C26.8041 167.18 27.0366 170.116 28.7087 172.261C30.3809 174.407 33.1708 175.35 35.8017 174.658C54.1584 170.181 72.9188 167.561 91.7997 166.838V193.8C91.7997 199.433 96.3664 204 102 204C107.633 204 112.2 199.433 112.2 193.8V166.838C131.081 167.561 149.841 170.181 168.198 174.658C168.766 174.793 169.348 174.861 169.932 174.862C172.372 174.884 174.637 173.597 175.867 171.489C177.096 169.381 177.102 166.775 175.882 164.662C173.069 159.269 169.433 154.348 165.104 150.076C178.316 141.924 190.645 132.421 201.892 121.72C203.592 120.123 204.354 117.767 203.913 115.477C203.472 113.186 201.887 111.282 199.716 110.432L191.012 107.032L199.648 89.76C200.835 87.3921 200.539 84.5502 198.89 82.4775C197.241 80.4048 194.538 79.4785 191.964 80.104L175.508 84.218L173.74 73.644C173.318 71.221 171.621 69.2145 169.301 68.3967C166.982 67.5789 164.402 68.0772 162.554 69.7C154.779 76.275 146.026 81.5976 136.612 85.476C143.224 72.7405 147.497 58.9213 149.226 44.676C149.584 41.9283 148.239 39.2382 145.826 37.876C143.645 36.5399 140.9 36.5399 138.72 37.876L132.6 42.024C132.6 42.024 132.6 42.024 132.6 41.684V21.454C132.632 18.8397 131.22 16.4207 128.928 15.164C126.787 13.9803 124.167 14.0852 122.128 15.436L114.002 20.74L108.392 4.52197C107.429 1.80812 104.862 -0.00543213 101.983 -0.00543213C99.1032 -0.00543213 96.536 1.80812 95.5737 4.52197L90.1677 20.842L81.8037 15.402C79.7648 14.0512 77.1439 13.9463 75.0037 15.13C72.7264 16.4104 71.3407 18.8421 71.3997 21.454V41.854C71.4046 41.9332 71.4046 42.0127 71.3997 42.092L65.1437 38.012C62.988 36.633 60.2273 36.633 58.0717 38.012C55.6587 39.3742 54.3137 42.0643 54.6717 44.812C56.4249 59.0565 60.7082 72.8735 67.3197 85.612C57.9097 81.7242 49.1586 76.4025 41.3777 69.836C39.5572 68.253 37.0342 67.7531 34.7477 68.5223C32.4611 69.2915 30.7533 71.2145 30.2597 73.576L28.4917 84.15L12.0357 80.036C9.46164 79.4105 6.75871 80.3368 5.1093 82.4095C3.45989 84.4822 3.16423 87.3241 4.35166 89.692L12.9537 106.964L4.28366 110.364C2.08945 111.212 0.48955 113.134 0.0535094 115.446C-0.382531 117.758 0.407236 120.131 2.14166 121.72C13.3478 132.48 25.6557 142.03 38.8617 150.212ZM15.4697 113.288C17.2154 112.552 18.5748 111.12 19.2202 109.339C19.8656 107.558 19.7386 105.588 18.8697 103.904L10.4037 86.632L26.8597 90.746C28.7 91.2023 30.6473 90.8695 32.2317 89.828C33.8206 88.7929 34.9052 87.1414 35.2237 85.272L36.9577 74.732C47.7819 83.908 60.3213 90.8422 73.8477 95.132C75.2028 95.531 76.6634 95.0505 77.5171 93.9249C78.3707 92.7994 78.4394 91.2632 77.6897 90.066C69.169 75.8732 63.6277 60.0939 61.4037 43.69L67.7957 47.6C69.8345 48.9508 72.4554 49.0556 74.5957 47.872C76.8193 46.6044 78.1943 44.2435 78.1997 41.684V21.284L86.5977 26.724C88.3026 27.7128 90.3605 27.8874 92.2077 27.2C94.2227 26.5061 95.7959 24.9078 96.4577 22.882L102 6.79997L107.576 22.95C108.248 24.9423 109.805 26.5114 111.792 27.2C113.724 27.8768 115.862 27.6127 117.572 26.486L125.8 21.454V41.854C125.769 44.4764 127.179 46.9043 129.472 48.178C131.612 49.3616 134.233 49.2568 136.272 47.906L142.46 43.86C140.25 67.66 126.48 89.692 126.31 89.93C125.56 91.1272 125.629 92.6634 126.482 93.7889C127.336 94.9145 128.797 95.395 130.152 94.996C143.672 90.7163 156.202 83.7808 167.008 74.596L168.776 85.17C169.094 87.0394 170.179 88.6909 171.768 89.726C173.352 90.7675 175.299 91.1003 177.14 90.644L193.596 86.53L184.926 103.836C184.079 105.542 183.987 107.526 184.673 109.303C185.358 111.08 186.757 112.489 188.53 113.186L197.234 116.586C186.389 126.982 174.493 136.223 161.738 144.16C159.885 145.203 158.628 147.052 158.338 149.158C158.053 151.294 158.797 153.438 160.344 154.938C164.248 158.765 167.508 163.196 170 168.062C151.049 163.461 131.686 160.762 112.2 160.004V146.2C112.2 144.322 110.677 142.8 108.8 142.8C106.922 142.8 105.4 144.322 105.4 146.2V193.8C105.4 195.678 103.877 197.2 102 197.2C100.122 197.2 98.5997 195.678 98.5997 193.8V146.2C98.5997 144.322 97.0774 142.8 95.1997 142.8C93.3219 142.8 91.7997 144.322 91.7997 146.2V160.004C72.3159 160.77 52.9554 163.458 33.9997 168.028C36.4835 163.243 39.6951 158.873 43.5197 155.074C45.0405 153.591 45.7806 151.482 45.5204 149.373C45.2602 147.265 44.0295 145.399 42.1937 144.33C29.4619 136.404 17.5987 127.162 6.79966 116.756L15.4697 113.288Z" fill="black"/>
<path d="M81.6 139.4C82.8803 139.396 84.0499 138.673 84.626 137.53C85.4656 135.858 84.7971 133.823 83.1301 132.974C66.4899 124.538 50.7566 114.421 36.176 102.782C34.7302 101.58 32.5838 101.778 31.382 103.224C30.1803 104.67 30.3782 106.816 31.824 108.018C46.779 120.011 62.9493 130.403 80.07 139.026C80.5403 139.278 81.0667 139.406 81.6 139.4Z" fill="black"/>
<path d="M119.374 137.53C119.95 138.673 121.12 139.396 122.4 139.4C122.933 139.406 123.46 139.278 123.93 139.026C141.051 130.403 157.221 120.011 172.176 108.018C173.111 107.241 173.561 106.023 173.355 104.825C173.15 103.626 172.32 102.628 171.179 102.207C170.038 101.785 168.759 102.005 167.824 102.782C153.241 114.417 137.508 124.534 120.87 132.974C119.203 133.823 118.535 135.858 119.374 137.53Z" fill="black"/>
<path d="M102 51C103.878 51 105.4 49.4778 105.4 47.6V40.8C105.4 38.9222 103.878 37.4 102 37.4C100.122 37.4 98.6001 38.9222 98.6001 40.8V47.6C98.6001 49.4778 100.122 51 102 51Z" fill="black"/>
<path d="M98.5999 122.094V132.6C98.5999 134.478 100.122 136 102 136C103.878 136 105.4 134.478 105.4 132.6V122.094C115.872 120.394 127.296 111.894 127.84 111.52C129.342 110.393 129.647 108.262 128.52 106.76C127.393 105.258 125.262 104.953 123.76 106.08C118.24 110.2 112.019 113.287 105.4 115.192V81.192C112.167 79.7645 118.081 75.6871 121.822 69.87C122.631 68.8652 122.802 67.4889 122.263 66.3166C121.724 65.1444 120.568 64.3783 119.278 64.3388C117.989 64.2992 116.788 64.993 116.178 66.13C113.677 70.0298 109.848 72.8922 105.4 74.188V61.2C105.4 59.3222 103.878 57.8 102 57.8C100.122 57.8 98.5999 59.3222 98.5999 61.2V74.188C94.1517 72.8922 90.3231 70.0298 87.8219 66.13C87.212 64.993 86.0111 64.2992 84.7215 64.3388C83.4318 64.3783 82.2757 65.1444 81.7367 66.3166C81.1976 67.4889 81.3685 68.8652 82.1779 69.87C85.9187 75.6871 91.8327 79.7645 98.5999 81.192V115.192C91.9774 113.311 85.755 110.234 80.2399 106.114C79.2681 105.385 77.9813 105.23 76.8643 105.707C75.7472 106.184 74.9696 107.221 74.8243 108.427C74.679 109.633 75.1881 110.825 76.1599 111.554C76.7039 111.928 88.1279 120.394 98.5999 122.094Z" fill="black"/>
</svg>
